<svg width="24" height="24" viewBox="0 0 24 24" fill="none" xmlns="http://www.w3.org/2000/svg">
<path d="M23 11.8756C23 13.9356 22.5142 15.8148 21.5491 17.5066C20.5934 19.1885 19.2747 20.5286 17.6167 21.5238C15.9523 22.5107 14.0809 23 11.996 23C9.91118 23 8.08116 22.5107 6.41519 21.5238C4.75878 20.5286 3.44002 19.1885 2.45892 17.5066C1.48577 15.8148 1 13.9356 1 11.8756C1 9.78905 1.48577 7.90154 2.45892 6.20974C3.44002 4.52789 4.75878 3.18773 6.41519 2.21909C7.37082 1.66179 8.38537 1.25709 9.46522 1.02654V5.51644C7.28163 6.50332 5.75581 8.77895 5.75581 11.4128C5.75581 14.9673 8.52553 17.85 11.9371 17.85C15.3503 17.85 18.1184 14.9656 18.1184 11.4128C18.1184 8.77729 16.5942 6.50332 14.409 5.51644V1C15.5302 1.23221 16.5846 1.63525 17.5737 2.21909C19.2381 3.18938 20.5568 4.52789 21.53 6.20974C22.5031 7.89988 22.9968 9.78905 22.9968 11.8756H23Z" fill="url(#paint0_linear_1_1927)" stroke="#00F0C9" stroke-width="0.5" stroke-miterlimit="10"/>
<path d="M9.46533 5.48994C9.46533 5.48994 11.9388 4.69712 14.4107 5.48994V11.0662H9.46533V5.48994Z" fill="url(#paint1_linear_1_1927)" stroke="#00F0C9" stroke-width="0.5" stroke-miterlimit="10"/>
<defs>
<linearGradient id="paint0_linear_1_1927" x1="1" y1="13.5278" x2="23" y2="13.5278" gradientUnits="userSpaceOnUse">
<stop stop-color="#222729"/>
<stop offset="1" stop-color="#1CB799"/>
</linearGradient>
<linearGradient id="paint1_linear_1_1927" x1="14.4445" y1="6.8056" x2="8.02782" y2="6.8056" gradientUnits="userSpaceOnUse">
<stop stop-color="#12D8B2"/>
<stop offset="1" stop-color="#131516"/>
</linearGradient>
</defs>
</svg>
